<svg xmlns="http://www.w3.org/2000/svg" xmlns:xlink="http://www.w3.org/1999/xlink" xmlns:fi="http://pattern.flaticon.com/" x="0" y="0" width="1920" height="960" viewBox="0 0 2240 1120"><rect x="0px" y="0px" width="100%" height="100%" opacity="1" fill="#4b5c5c"/><defs><g transform="matrix(0.14150942862033844 0 0 0.14150942862033844 131 88)" id="L1_4"><path d="M212,126.56c-46.88,0-76,24-76,62.88c0,4.418,3.582,8,8,8h136c4.418,0,8-3.582,8-8C288,150.64,258.88,126.56,212,126.56z     M152.56,181.44c5.28-35.92,46.32-38.88,59.44-38.88s54.16,2.96,59.44,38.88H152.56z"/><path d="M212,42.56c-20.987,0-38,17.013-38,38c0.044,20.969,17.031,37.956,38,38c20.987,0,38-17.013,38-38    S232.987,42.56,212,42.56z M212,102.56c-12.15,0-22-9.85-22-22s9.85-22,22-22s22,9.85,22,22S224.15,102.56,212,102.56z"/><path d="M76,310.56c-46.88,0-76,24-76,62.88c0,4.418,3.582,8,8,8h136c4.418,0,8-3.582,8-8C152,334.64,122.88,310.56,76,310.56z     M16.56,365.44c5.28-35.92,46.24-38.88,59.44-38.88s54.16,2.96,59.44,38.88H16.56z"/><path d="M76,226.56c-20.987,0-38,17.013-38,38c0.044,20.969,17.031,37.956,38,38c20.987,0,38-17.013,38-38    S96.987,226.56,76,226.56z M76,286.56c-12.15,0-22-9.85-22-22s9.85-22,22-22s22,9.85,22,22S88.15,286.56,76,286.56z"/><path d="M348,310.56c-46.88,0-76,24-76,62.88c0,4.418,3.582,8,8,8h136c4.418,0,8-3.582,8-8C424,334.64,394.88,310.56,348,310.56z     M288.56,365.44c5.28-35.92,46.24-38.88,59.44-38.88s54.16,2.96,59.44,38.88H288.56z"/><path d="M348,226.56c-20.987,0-38,17.013-38,38c0.044,20.969,17.031,37.956,38,38c20.987,0,38-17.013,38-38    S368.987,226.56,348,226.56z M348,286.56c-12.15,0-22-9.85-22-22s9.85-22,22-22s22,9.85,22,22S360.15,286.56,348,286.56z"/><path d="M253.36,296.72L220,263.2V216c0-4.418-3.582-8-8-8s-8,3.582-8,8v47.2l-33.36,33.36c-3.159,3.115-3.195,8.201-0.08,11.36    s8.201,3.195,11.36,0.08L212,277.84L242.08,308c3.356,2.874,8.406,2.483,11.28-0.873    C255.925,304.132,255.925,299.715,253.36,296.72z"/></g><g transform="matrix(0.13896609842777252 0 0 0.13896609842777252 270.9999979643638 -18)" id="L1_5"><path d="M215.88,85.12C153.556,85.164,103.044,135.676,103,198c0.557,40.682,20.351,78.696,53.36,102.48V382    c0.027,0.932,0.216,1.853,0.56,2.72v0.64c0.138,0.33,0.299,0.651,0.48,0.96l28.16,41.92c1.49,2.205,3.979,3.524,6.64,3.52h46.56    c2.661,0.004,5.15-1.315,6.64-3.52l28.16-41.92c0.181-0.309,0.342-0.63,0.48-0.96v-0.64c0.344-0.867,0.533-1.788,0.56-2.72v-81.52    c33.01-23.784,52.803-61.798,53.36-102.48C327.918,135.987,277.891,85.603,215.88,85.12z M234.92,416h-38.08l-17.44-25.92h72.88    L234.92,416z M172.44,374.08v-21.2h86.88l0.08,21.2H172.44z M263,289.52l0,0.24c-2.259,1.487-3.613,4.015-3.6,6.72v40.64h-86.96    V296c0.013-2.705-1.341-5.233-3.6-6.72c-30.628-20.467-49.233-54.687-49.76-91.52c1.537-53.483,46.14-95.594,99.623-94.057    c51.323,1.475,92.582,42.734,94.057,94.057C312.312,234.679,293.697,269.005,263,289.52z" fill="#000000"/><path d="M219.08,121.36c-4.418,0-8,3.582-8,8s3.582,8,8,8c33.251,0.044,60.196,26.989,60.24,60.24c0,4.418,3.582,8,8,8    s8-3.582,8-8C295.276,155.512,261.168,121.404,219.08,121.36z" fill="#000000"/><path d="M81.48,189.6h-57.6c-4.418,0-8,3.582-8,8s3.582,8,8,8h57.6c4.418,0,8-3.582,8-8c0,0,0,0,0,0    C89.48,193.182,85.898,189.6,81.48,189.6z" fill="#000000"/><path d="M407.88,189.6h-57.6c-4.418,0-8,3.582-8,8s3.582,8,8,8h57.6c4.418,0,8-3.582,8-8S412.298,189.6,407.88,189.6z" fill="#000000"/><path d="M127.313,287.12c-2.874-3.356-7.924-3.747-11.28-0.873c-0.313,0.268-0.605,0.56-0.873,0.873v-0.16L74.28,328    c-3.356,2.874-3.747,7.924-0.873,11.28c2.874,3.356,7.924,3.747,11.28,0.873c0.313-0.268,0.605-0.56,0.873-0.873l40.88-40.88    C129.796,295.526,130.187,290.476,127.313,287.12z" fill="#000000"/><path d="M356.607,56c-2.995-2.565-7.412-2.565-10.407,0l-40.88,40.88c-3.137,3.111-3.158,8.177-0.047,11.314    c1.513,1.526,3.577,2.379,5.727,2.366l-0.08-0.08c2.126,0.012,4.17-0.823,5.68-2.32l40.88-40.88    C360.354,63.924,359.963,58.874,356.607,56z" fill="#000000"/><path d="M359.067,329.609c-0.45-0.609-0.984-1.151-1.587-1.609l-40.88-41.04c-2.874-3.356-7.924-3.747-11.28-0.873    c-3.356,2.874-3.747,7.924-0.873,11.28c0.268,0.313,0.56,0.605,0.873,0.873l40.88,40.88c2.626,3.553,7.636,4.304,11.189,1.678    S361.693,333.162,359.067,329.609z" fill="#000000"/><path d="M126.44,96.88L85.56,56c-3.356-2.874-8.406-2.483-11.28,0.873c-2.565,2.995-2.565,7.412,0,10.407l40.88,40.88    c3.356,2.874,8.406,2.483,11.28-0.873C129.005,104.292,129.005,99.875,126.44,96.88z" fill="#000000"/><path d="M215.88,0c-4.418,0-8,3.582-8,8v57.84c-0.133,4.416,3.34,8.104,7.756,8.236c0.081,0.002,0.162,0.004,0.244,0.004    c4.418,0,8-3.582,8-8V8C223.88,3.582,220.298,0,215.88,0z" fill="#000000"/></g><g transform="matrix(0.12827630036254914 -0.02080156141880862 0.02080156141880862 0.12827630036254914 119.06662621741043 215.53053606554948)" id="L1_6"><path d="M454.055,232.617c-0.684-1.152-1.646-2.114-2.798-2.798h0.48l-293.76-178.24c-2.475-1.429-5.525-1.429-8,0l-145.52,77.6    c-3.956,1.968-5.568,6.77-3.6,10.726c0.65,1.308,1.647,2.412,2.88,3.194l294.16,182.56c1.273,0.789,2.742,1.205,4.24,1.2    c1.374-0.004,2.724-0.362,3.92-1.04l145.2-82.24C455.057,241.324,456.309,236.416,454.055,232.617z M302.617,309.819    l-278.4-173.04l129.36-69.2l277.92,168.88L302.617,309.819z"/><path d="M454.217,271.579c-2.209-3.844-7.116-5.169-10.96-2.96h0.48l-141.04,80l-290.32-180.24    c-3.756-2.386-8.734-1.276-11.12,2.48c-2.386,3.756-1.276,8.734,2.48,11.12l294.16,182.56c1.273,0.789,2.742,1.205,4.24,1.2    c1.374-0.004,2.724-0.362,3.92-1.04l145.2-82.16C455.101,280.33,456.426,275.423,454.217,271.579z"/><path d="M452.511,310.175c-2.092-2.617-5.594-3.654-8.774-2.596l-141.44,80l-289.92-180.32c-3.756-2.386-8.734-1.276-11.12,2.48    c-2.386,3.756-1.276,8.734,2.48,11.12l294.16,182.72c1.273,0.789,2.742,1.205,4.24,1.2c1.374-0.004,2.724-0.362,3.92-1.04    l145.2-82.32C454.708,318.66,455.27,313.626,452.511,310.175z"/><path d="M273.689,145.693c-2.765-3.446-7.801-3.998-11.246-1.232c-0.218,0.175-0.427,0.362-0.626,0.559l-8.56,8    c-2.678-2.406-5.697-4.401-8.96-5.92c-4.262-2.007-9-2.783-13.68-2.24c-4.133,0.51-8.012,2.269-11.12,5.04    c-3.217,2.707-5.348,6.486-6,10.64c-0.56,4.367-0.095,8.804,1.36,12.96c1.189,3.438,2.578,6.804,4.16,10.08l-16,14.32    c-0.193-0.55-0.353-1.111-0.48-1.68c-0.603-3.853-0.189-7.796,1.2-11.44c0.656-1.716,1.034-3.525,1.12-5.36    c-0.071-1.78-0.815-3.466-2.08-4.72c-1.435-1.775-3.56-2.852-5.84-2.96c-2.174-0.142-4.312,0.609-5.92,2.08    c-2.67,2.541-4.439,5.883-5.04,9.52c-0.788,4.79-0.291,9.704,1.44,14.24c1.197,3.401,2.838,6.629,4.88,9.6l-9.2,8    c-3.314,2.922-3.631,7.978-0.709,11.292c1.535,1.74,3.749,2.728,6.069,2.708l-0.16,0.24c1.972,0.017,3.881-0.695,5.36-2l9.04-8    c3.005,2.826,6.367,5.247,10,7.2c9.244,5.236,20.83,3.771,28.48-3.6c2.689-2.345,4.565-5.482,5.36-8.96    c0.785-3.924,0.648-7.978-0.4-11.84c-1.444-5.33-3.54-10.462-6.24-15.28v-0.48l13.28-11.92c0.388,2.169,0.388,4.391,0,6.56    c-0.47,2.424-0.684,4.891-0.64,7.36c0.088,1.948,0.884,3.798,2.24,5.2c1.512,1.936,3.724,3.201,6.16,3.52    c2.147,0.12,4.252-0.63,5.84-2.08c1.711-1.619,2.907-3.706,3.44-6c0.604-2.929,0.604-5.951,0-8.88    c-0.667-3.778-1.937-7.424-3.76-10.8c-0.826-1.541-1.734-3.036-2.72-4.48l8.72-8C275.903,154.174,276.455,149.138,273.689,145.693    z M224.537,210.779c-2.086,1.562-4.803,2.01-7.28,1.2c-1.597-0.404-3.113-1.081-4.48-2l13.52-11.76    c0.582,1.479,1.036,3.004,1.36,4.56C228.144,205.814,226.95,208.875,224.537,210.779z M232.457,171.579    c-0.375-1.224-0.616-2.484-0.72-3.76c-0.375-2.176,0.414-4.39,2.08-5.84c1.887-1.591,4.482-2.049,6.8-1.2    c0.803,0.275,1.58,0.623,2.32,1.04L232.457,171.579z"/></g><g transform="matrix(0.125 0 0 0.125 130.99999789428705 -20)" id="L1_7"><path d="M247.923,216h-16c-4.418,0-8-3.582-8-8v-8c0-4.418,3.582-8,8-8h16c4.418,0,8,3.582,8,8h16c0-13.255-10.745-24-24-24v-16    h-16v16c-13.255,0-24,10.745-24,24v8c0,13.255,10.745,24,24,24h16c4.418,0,8,3.582,8,8v8c0,4.418-3.582,8-8,8h-16    c-4.418,0-8-3.582-8-8h-16c0,13.255,10.745,24,24,24v16h16v-16c13.255,0,24-10.745,24-24v-8    C271.923,226.745,261.178,216,247.923,216z"/><path d="M321.875,125.776c12.027-5.572,17.259-19.839,11.687-31.865c-3.909-8.438-12.34-13.857-21.639-13.911h-6.24l7.544-37.704    c3.826-19.155-8.6-37.785-27.755-41.611c-2.278-0.455-4.595-0.684-6.917-0.685c-11.496-0.035-22.527,4.535-30.632,12.688    c-4.475,4.279-11.525,4.279-16,0C223.818,4.535,212.787-0.034,201.291,0c-19.533,0.006-35.363,15.846-35.357,35.379    c0.001,2.323,0.23,4.64,0.685,6.917L174.163,80h-6.24c-13.255,0.076-23.938,10.882-23.863,24.137    c0.053,9.299,5.473,17.73,13.911,21.639c-29.105,24.332-45.962,60.288-46.048,98.224    c-0.056,70.692,57.206,128.045,127.899,128.101c70.692,0.056,128.045-57.206,128.101-127.899    C367.953,186.183,351.08,150.118,321.875,125.776z M197.476,16.383c1.256-0.253,2.534-0.382,3.815-0.383    c7.248-0.022,14.203,2.859,19.312,8c10.815,10.306,27.817,10.306,38.632,0c5.113-5.14,12.07-8.02,19.32-8    c10.697,0.009,19.36,8.688,19.351,19.385c-0.001,1.281-0.129,2.559-0.383,3.815l-8.16,40.8h-98.88l-8.16-40.8    C180.207,28.715,186.991,18.499,197.476,16.383z M167.923,96h144c4.418,0,8,3.582,8,8s-3.582,8-8,8h-144c-4.418,0-8-3.582-8-8    S163.505,96,167.923,96z M239.976,336.053c-61.856,0.029-112.024-50.091-112.053-111.947c-0.019-39.37,20.635-75.859,54.4-96.107    h115.2c33.678,20.281,54.308,56.687,54.4,96C351.952,285.856,301.832,336.024,239.976,336.053z"/><path d="M415.363,361.064L415.363,361.064c-5.791-5.89-13.733-9.163-21.992-9.064c-8.244-0.041-16.157,3.24-21.952,9.104    C360.595,372,339.611,392.992,332.603,400h-36.68c0-17.673-14.327-32-32-32h-40c-1.731,0-3.415,0.561-4.8,1.6L189.259,392h-37.336    v-8c0-4.418-3.582-8-8-8h-80c-4.418,0-8,3.582-8,8v88c0,4.418,3.582,8,8,8h80c4.418,0,8-3.582,8-8v-8h180.12    c14.86,0.04,29.117-5.868,39.592-16.408l43.68-43.68C426.979,392.019,427.001,372.984,415.363,361.064z M135.923,464h-64v-72h64    V464z M404.003,392.6l-43.68,43.68c-7.483,7.527-17.666,11.747-28.28,11.72h-180.12v-40h40c1.731,0,3.415-0.561,4.8-1.6    l29.864-22.4h37.336c8.837,0,16,7.163,16,16s-7.163,16-16,16h-32v16h32c11.429-0.003,21.989-6.102,27.704-16h44.296    c2.122,0,4.156-0.844,5.656-2.344c0,0,28.064-28.072,41.192-41.288c2.906-2.888,6.864-4.466,10.96-4.368    c3.846-0.013,7.534,1.531,10.224,4.28c2.789,2.861,4.276,6.744,4.112,10.736C408.015,386.619,406.557,390.059,404.003,392.6z"/><rect x="103px" y="432px" width="16px" height="16px"/></g><g transform="matrix(0.1252986341714859 0 0 0.1252986341714859 276 212.0000003059049)" id="L1_46"><path d="M406.872,160.017c-0.005,0-0.011,0-0.016,0h-400c-3.782-0.004-6.852,3.058-6.856,6.84c0,0.005,0,0.011,0,0.016v192    c-0.004,3.782,3.058,6.852,6.84,6.856c0.005,0,0.011,0,0.016,0h272c3.786,0,6.856-3.07,6.856-6.856    c0-3.786-3.07-6.856-6.856-6.856H13.712V173.729H400v17.144c-0.004,3.782,3.058,6.852,6.84,6.856c0.005,0,0.011,0,0.016,0    c3.782,0.004,6.852-3.058,6.856-6.84c0-0.005,0-0.011,0-0.016v-24C413.716,163.091,410.654,160.022,406.872,160.017z"/><path d="M360.36,128.185l-320-72c-1.776-0.397-3.637-0.075-5.176,0.896c-1.537,0.979-2.624,2.526-3.024,4.304l-16,72    c-0.822,3.698,1.51,7.362,5.208,8.184c3.698,0.822,7.362-1.51,8.184-5.208l14.504-65.288l313.296,70.488    c0.496,0.115,1.003,0.172,1.512,0.168c3.786-0.007,6.85-3.082,6.844-6.868C365.702,131.66,363.482,128.89,360.36,128.185z"/><path d="M321.504,88.513l-192-80c-3.337-1.391-7.182,0.038-8.8,3.272l-16,32c-1.807,3.342-0.563,7.517,2.78,9.324    c3.342,1.807,7.517,0.563,9.324-2.78c0.071-0.131,0.138-0.265,0.2-0.401v0.016l13.128-26.272l186.072,77.528    c3.504,1.462,7.53-0.192,8.992-3.696C326.662,94.002,325.008,89.976,321.504,88.513z"/><path d="M326.352,192.017h-63.496c-3.786,0-6.856,3.07-6.856,6.856c0,3.786,3.07,6.856,6.856,6.856h63.496    c3.786,0,6.856-3.07,6.856-6.856S330.138,192.017,326.352,192.017z"/><path d="M198.856,192.473c-38.881,0-70.4,31.519-70.4,70.4c0.04,38.864,31.536,70.36,70.4,70.4c38.881,0,70.4-31.519,70.4-70.4    S237.737,192.473,198.856,192.473z M198.856,320.473c-31.812,0-57.6-25.788-57.6-57.6c0.035-31.797,25.803-57.565,57.6-57.6    c31.812,0,57.6,25.788,57.6,57.6C256.456,294.685,230.668,320.473,198.856,320.473z"/><path d="M390.856,214.873c-42.4,0-88,10.016-88,32v192c0,21.984,45.6,32,88,32c42.4,0,88-10.016,88-32v-192    C478.856,224.889,433.256,214.873,390.856,214.873z M462.856,438.753c-1.208,4.44-25.2,16.12-72,16.12s-70.792-11.68-72-16    v-12.576c17.024,8.576,45.144,12.576,72,12.576c26.856,0,54.984-4.04,72-12.584V438.753z M462.856,406.753    c-1.208,4.44-25.2,16.12-72,16.12s-70.792-11.68-72-16v-12.576c17.024,8.576,45.144,12.576,72,12.576    c26.856,0,54.984-4.04,72-12.584V406.753z M462.856,374.753c-1.208,4.44-25.2,16.12-72,16.12s-70.792-11.68-72-16v-12.576    c17.024,8.576,45.144,12.576,72,12.576c26.856,0,54.984-4.04,72-12.584V374.753z M462.856,342.753    c-1.208,4.44-25.2,16.12-72,16.12s-70.792-11.68-72-16v-12.576c17.024,8.576,45.144,12.576,72,12.576    c26.856,0,54.984-4.04,72-12.584V342.753z M462.856,310.753c-1.208,4.44-25.2,16.12-72,16.12s-70.792-11.68-72-16v-12.576    c17.024,8.536,45.144,12.576,72,12.576c26.856,0,54.984-4.04,72-12.584V310.753z M462.856,278.753    c-1.208,4.44-25.2,16.12-72,16.12s-70.792-11.68-72-16v-12.576c17.024,8.536,45.144,12.576,72,12.576    c26.856,0,54.984-4.04,72-12.584V278.753z M390.856,262.873c-46.728,0-70.712-11.648-72-15.856v-0.048    c1.288-4.456,25.272-16.096,72-16.096c46.4,0,70.4,11.472,72,16C461.256,251.401,437.256,262.873,390.856,262.873z"/><path d="M134.856,320.009H74.384l-28.672-31.36v-52l31.664-30.92h57.48c3.786,0,6.856-3.07,6.856-6.856    c0-3.786-3.07-6.856-6.856-6.856H74.592c-1.792-0.004-3.515,0.694-4.8,1.944l-35.736,34.856c-1.335,1.56-2.067,3.547-2.064,5.6    v56.896c0,1.711,0.639,3.36,1.792,4.624l32.504,35.552c1.299,1.422,3.137,2.233,5.064,2.232h63.504    c3.786,0,6.856-3.07,6.856-6.856C141.712,323.079,138.643,320.009,134.856,320.009z"/><path d="M202.856,254.873h-8c-2.488,0-4-1.392-4-2c0-0.608,1.512-2,4-2h20c4.418,0,8-3.582,8-8s-3.582-8-8-8h-8    c0-4.418-3.582-8-8-8s-8,3.582-8,8v0.36c-8.873,1.253-15.595,8.648-16,17.6c0.573,10.489,9.507,18.548,20,18.04h8    c2.488,0,4,1.392,4,2c0,0.608-1.512,2-4,2h-20c-4.418,0-8,3.582-8,8s3.582,8,8,8h8c0,4.418,3.582,8,8,8s8-3.582,8-8v-0.36    c8.873-1.253,15.595-8.648,16-17.6C222.283,262.424,213.349,254.365,202.856,254.873z"/></g><g transform="matrix(0.12094104290008545 0 0 0.12094104290008545 273.9740871191025 98.97408711910248)" id="L1_48"><path d="M128,0C57.308,0,0,57.308,0,128c0.084,70.658,57.342,127.916,128,128c70.692,0,128-57.308,128-128S198.692,0,128,0z     M128,240c-61.856,0-112-50.144-112-112C16.066,66.172,66.172,16.067,128,16c61.856,0,112,50.144,112,112S189.856,240,128,240z"/><path d="M128,32c-53.019,0-96,42.981-96,96c0.057,52.996,43.004,95.943,96,96c53.019,0,96-42.981,96-96S181.019,32,128,32z     M128,208c-44.183,0-80-35.817-80-80c0.049-44.163,35.837-79.951,80-80c44.183,0,80,35.817,80,80S172.183,208,128,208z"/><path d="M352,256c-53.019,0-96,42.981-96,96s42.981,96,96,96s96-42.981,96-96C447.943,299.005,404.996,256.058,352,256z M352,432    c-44.183,0-80-35.817-80-80c0-44.183,35.817-80,80-80c44.183,0,80,35.817,80,80C431.952,396.163,396.163,431.952,352,432z"/><path d="M352,224c-70.692,0-128,57.308-128,128s57.308,128,128,128s128-57.308,128-128C479.916,281.343,422.658,224.084,352,224z     M352,464c-61.856,0-112-50.144-112-112s50.144-112,112-112s112,50.144,112,112C463.934,413.829,413.828,463.934,352,464z"/><path d="M383.663,382.034c-3.884-2.107-8.74-0.667-10.847,3.217c-0.095,0.175-0.183,0.353-0.264,0.534    C368.958,394.043,360.995,399.551,352,400c-12.68-1.131-22.664-11.301-23.56-24H352c4.418,0,8-3.582,8-8s-3.582-8-8-8h-24v-16h24    c4.418,0,8-3.582,8-8s-3.582-8-8-8h-23.56c0.896-12.699,10.88-22.869,23.56-24c8.995,0.45,16.958,5.958,20.552,14.216    c1.812,4.03,6.548,5.827,10.577,4.015s5.827-6.548,4.015-10.577c-0.081-0.181-0.17-0.359-0.264-0.534    c-6.253-13.739-19.79-22.712-34.88-23.12c-21.499,1.254-38.606,18.492-39.696,40H304c-4.418,0-8,3.582-8,8s3.582,8,8,8h8v16h-8    c-4.418,0-8,3.582-8,8s3.582,8,8,8h8.304c1.09,21.508,18.197,38.746,39.696,40c15.09-0.408,28.627-9.381,34.88-23.12    C388.987,388.997,387.547,384.141,383.663,382.034z"/><path d="M136,120h-16c-8.672,0-16-5.496-16-12c0-6.504,7.328-12,16-12h40c4.418,0,8-3.582,8-8s-3.582-8-8-8h-24v-8    c0-4.418-3.582-8-8-8s-8,3.582-8,8v8c-16.537-1.012-30.808,11.475-32,28c1.192,16.525,15.463,29.012,32,28h16    c8.672,0,16,5.496,16,12c0,6.504-7.328,12-16,12H96c-4.418,0-8,3.582-8,8s3.582,8,8,8h24v8c0,4.418,3.582,8,8,8s8-3.582,8-8v-8    c16.537,1.012,30.808-11.475,32-28C166.808,131.475,152.537,118.989,136,120z"/><path d="M477.777,114.465c-0.079-0.082-0.159-0.162-0.241-0.241h-0.008l-58.4-56c-3.194-3.053-8.258-2.939-11.311,0.255    c-1.421,1.487-2.215,3.464-2.217,5.521v16H280c-4.418,0-8,3.582-8,8v64c0,4.418,3.582,8,8,8h125.6v16c0,4.418,3.581,8,7.999,8.001    c2.063,0,4.047-0.797,5.537-2.225l58.4-56C480.726,122.719,480.834,117.655,477.777,114.465z M421.528,157.256V152    c0-4.418-3.582-8-8-8H288V96h125.6c4.418,0,8-3.582,8-8v-5.256L460.44,120L421.528,157.256z"/><path d="M200,312H74.44v-16c0-4.418-3.581-8-7.999-8.001c-2.063,0-4.047,0.797-5.537,2.225l-58.4,56    c-3.19,3.057-3.298,8.121-0.241,11.311c0.079,0.082,0.159,0.162,0.241,0.241l58.4,56c3.19,3.057,8.254,2.95,11.311-0.239    c1.428-1.49,2.225-3.473,2.225-5.537v-16H200c4.418,0,8-3.582,8-8v-64C208,315.582,204.418,312,200,312z M192,376H66.44    c-4.418,0-8,3.582-8,8v5.256L19.56,352l38.88-37.256V320c0,4.418,3.582,8,8,8H192V376z"/></g><g transform="matrix(0.125 0 0 0.125 27 215)" id="L1_49"><path d="M456,80H24C10.745,80,0,90.745,0,104v272c0,13.255,10.745,24,24,24h432c13.255,0,24-10.745,24-24V104    C480,90.745,469.255,80,456,80z M464,376c0,4.418-3.582,8-8,8H24c-4.418,0-8-3.582-8-8V104c0-4.418,3.582-8,8-8h432    c4.418,0,8,3.582,8,8V376z"/><path d="M152,112H40c-4.418,0-8,3.582-8,8v136c0,4.418,3.582,8,8,8h112c4.418,0,8-3.582,8-8V120C160,115.582,156.418,112,152,112z     M128,248H64v-8c0-17.673,14.327-32,32-32s32,14.327,32,32V248z M80,176c0-8.837,7.163-16,16-16s16,7.163,16,16s-7.163,16-16,16    S80,184.837,80,176z M144,240c-0.01-17.49-9.533-33.591-24.856-42.024c12.203-12.784,11.731-33.04-1.053-45.243    c-12.784-12.202-33.04-11.731-45.243,1.053c-11.803,12.365-11.803,31.824,0,44.189C57.528,206.411,48.009,222.511,48,240V128h96    V240z"/><rect x="184px" y="128px" width="184px" height="16px"/><rect x="184px" y="208px" width="88px" height="16px"/><rect x="288px" y="208px" width="80px" height="16px"/><rect x="184px" y="232px" width="136px" height="16px"/><path d="M432,104h-48c-4.418,0-8,3.582-8,8v64c0,4.418,3.582,8,8,8h48c4.418,0,8-3.582,8-8v-64C440,107.582,436.418,104,432,104z     M424,168h-32v-48h32V168z"/><rect x="184px" y="152px" width="88px" height="16px"/><path d="M440,304H232c-4.418,0-8,3.582-8,8v48c0,4.418,3.582,8,8,8h208c4.418,0,8-3.582,8-8v-48C448,307.582,444.418,304,440,304z     M432,352H240v-32h192V352z"/><rect x="32px" y="312px" width="16px" height="48px"/><path d="M72,312 56,312 56,360 72,360 88,360 88,312z"/><rect x="96px" y="312px" width="16px" height="48px"/><path d="M136,312 120,312 120,360 136,360 152,360 152,312z"/><rect x="160px" y="312px" width="16px" height="48px"/></g><g transform="matrix(0.1224481463432312 0 0 0.1224481463432312 28.08091206327515 101.08182370662689)" id="L1_50"><path d="M388.095,184h-8c-4.748,0.025-9.429,1.119-13.696,3.2l18.976-98.712l10.568-54.976c0.835-4.339-2.005-8.533-6.344-9.368    C389.104,24.049,388.6,24,388.095,24h-192c-4.418,0-8,3.582-8,8c0,0.508,0.048,1.014,0.144,1.512l10.568,54.976l18.992,98.712    c-4.27-2.082-8.954-3.176-13.704-3.2h-42.904c-4.479-0.007-8.91,0.933-13,2.76l-56.096,24.928V208c0-4.418-3.582-8-8-8h-48    c-4.418,0-8,3.582-8,8v240c0,4.418,3.582,8,8,8h48c4.418,0,8-3.582,8-8v-8h194.744c46.489,0.128,91.097-18.349,123.88-51.312    c6.024-5.988,9.4-14.138,9.376-22.632V216C420.095,198.327,405.769,184,388.095,184z M76.095,440h-32V216h32V440z M378.415,40    l-7.12,36.96c-16.03-6.007-27.657-20.084-30.528-36.96H378.415z M205.775,40h37.648c-2.871,16.876-14.498,30.953-30.528,36.96    L205.775,40z M215.927,92.8c23.521-7.689,40.502-28.249,43.608-52.8h65.12c3.106,24.551,20.087,45.111,43.608,52.8    l-26.064,135.504c-2.834,2.372-6.408,3.68-10.104,3.696h-80c-3.696-0.015-7.27-1.323-10.104-3.696L215.927,92.8z M404.095,244.504    c-19.245,18.274-43.675,30.142-69.936,33.976l-67.2,9.6l2.264,15.832l67.2-9.6c24.661-3.606,47.972-13.524,67.672-28.792v18.984    c-19.245,18.274-43.675,30.142-69.936,33.976l-67.2,9.6l2.264,15.832l67.2-9.6c24.661-3.606,47.972-13.524,67.672-28.792v18.984    c-19.245,18.274-43.675,30.142-69.936,33.976l-67.2,9.6l2.264,15.832l67.2-9.6c24.661-3.606,47.972-13.524,67.672-28.792v20.544    c0.011,4.245-1.677,8.319-4.688,11.312c-29.79,29.952-70.324,46.74-112.568,46.624H92.095V229.2l62.608-27.824    c2.041-0.912,4.252-1.381,6.488-1.376h42.904c8.837,0,16,7.163,16,16c0,17.673,14.327,32,32,32h80c17.673,0,32-14.327,32-32    c0-8.837,7.163-16,16-16h8c8.837,0,16,7.163,16,16V244.504z"/><path d="M292.095,144c-22.091,0-40,17.909-40,40c0.026,22.08,17.92,39.974,40,40c22.091,0,40-17.909,40-40    S314.187,144,292.095,144z M292.095,208c-13.255,0-24-10.745-24-24s10.745-24,24-24s24,10.745,24,24S305.35,208,292.095,208z"/><rect x="330px" y="96px" width="147px" height="16px" transform="matrix(0.2169 -0.9762 0.9762 0.2169 214.9101 475.913)"/><path d="M228.095,0h-72c-4.418,0-8,3.581-8,8c0,0.622,0.073,1.243,0.216,1.848l40,168l15.56-3.704L166.223,16h61.872V0z"/></g><g transform="matrix(0.12498646229505539 0 0 0.12498646229505539 27.999999755885824 -19)" id="L1_51"><path d="M268.587,225.426c-0.041-0.028-0.082-0.055-0.123-0.082c-17.342-11.071-39.533-11.071-56.875,0    c-3.675,2.447-4.671,7.41-2.224,11.085c0.002,0.003,0.004,0.006,0.006,0.009c2.449,3.676,7.414,4.67,11.089,2.222    c0.001-0.001,0.003-0.002,0.004-0.003c11.977-7.451,27.148-7.451,39.125,0c3.653,2.485,8.629,1.537,11.114-2.116    C273.188,232.887,272.24,227.911,268.587,225.426z"/><path d="M380.593,289.43c-0.043-0.029-0.086-0.058-0.129-0.086c-17.343-11.068-39.532-11.068-56.875,0    c-3.652,2.487-4.597,7.463-2.111,11.115c2.452,3.602,7.337,4.579,10.986,2.197c11.977-7.452,27.148-7.452,39.125,0    c3.652,2.487,8.629,1.542,11.115-2.111C385.19,296.893,384.245,291.917,380.593,289.43z"/><path d="M156.593,321.43c-0.043-0.029-0.086-0.058-0.129-0.086c-17.344-11.063-39.531-11.063-56.875,0    c-3.652,2.486-4.598,7.463-2.111,11.115c2.452,3.603,7.337,4.579,10.986,2.197c11.979-7.447,27.146-7.447,39.125,0    c3.652,2.487,8.629,1.542,11.115-2.111C161.19,328.893,160.245,323.917,156.593,321.43z"/><path d="M352.026,256c-17.422-0.341-34.411,5.448-48,16.356V240c0-24.433-24.48-44.616-56-47.584v-40.634    c110.211-4.523,127.723-101.462,127.891-102.47c0.724-4.359-2.223-8.48-6.582-9.204c-0.433-0.072-0.87-0.108-1.309-0.108    c-68.23,0-102.955,34.313-120.14,63.273c-0.018-0.198,0.063-0.388,0.03-0.586C247.745,101.656,229.448,0,112.026,0    c-4.419,0.001-8,3.585-7.999,8.004c0,0.438,0.036,0.876,0.108,1.309c0.168,1.008,17.679,97.946,127.891,102.47v80.634    c-31.52,2.968-56,23.151-56,47.584v64.356c-13.589-10.909-30.578-16.698-48-16.356c-35.289,0-64,21.531-64,48v96    c0,26.469,28.711,48,64,48c21.499,0.832,42.174-8.329,56-24.813c13.826,16.484,34.501,25.645,56,24.813    c21.499,0.832,42.174-8.329,56-24.813c13.826,16.484,34.501,25.645,56,24.813c35.289,0,64-21.531,64-48V304    C416.026,277.531,387.315,256,352.026,256z M357.737,56.289c-6.836,22.203-31.055,75.047-107.422,79.422    C257.151,113.508,281.37,60.664,357.737,56.289z M122.362,16.297c75.992,4.406,100.398,57.195,107.328,79.406    C153.69,91.297,129.284,38.492,122.362,16.297z M176.026,432c0,17.344-21.984,32-48,32s-48-14.656-48-32v-0.281    c0.408,0.347,0.872,0.653,1.292,0.991c0.81,0.65,1.628,1.29,2.485,1.905c0.695,0.5,1.411,0.98,2.135,1.456    c0.889,0.584,1.794,1.151,2.725,1.698c0.758,0.445,1.525,0.876,2.31,1.296c0.97,0.519,1.96,1.012,2.969,1.491    c0.808,0.383,1.618,0.761,2.45,1.117c1.053,0.452,2.131,0.867,3.221,1.274c0.844,0.315,1.682,0.633,2.547,0.921    c1.144,0.381,2.316,0.715,3.493,1.046c0.862,0.243,1.714,0.498,2.594,0.713c1.254,0.307,2.539,0.553,3.826,0.802    c0.846,0.164,1.678,0.353,2.537,0.49c1.454,0.233,2.939,0.393,4.427,0.551c0.728,0.077,1.439,0.191,2.174,0.25    c2.241,0.179,4.512,0.28,6.815,0.28c2.303,0,4.574-0.102,6.815-0.28c0.735-0.059,1.447-0.172,2.175-0.25    c1.487-0.158,2.973-0.316,4.425-0.55c0.861-0.139,1.694-0.328,2.542-0.492c1.285-0.249,2.569-0.495,3.822-0.801    c0.879-0.215,1.731-0.471,2.594-0.713c1.177-0.331,2.35-0.665,3.493-1.046c0.865-0.288,1.703-0.606,2.547-0.921    c1.089-0.407,2.168-0.822,3.221-1.274c0.833-0.357,1.642-0.735,2.451-1.118c1.007-0.478,1.997-0.97,2.965-1.488    c0.787-0.421,1.557-0.854,2.317-1.3c0.929-0.546,1.832-1.112,2.719-1.695c0.725-0.476,1.441-0.957,2.137-1.457    c0.856-0.616,1.675-1.255,2.485-1.905c0.421-0.338,0.885-0.644,1.292-0.991V432z M176.026,400c0,17.344-21.984,32-48,32    s-48-14.656-48-32v-0.281c0.408,0.347,0.872,0.653,1.292,0.991c0.81,0.65,1.628,1.29,2.485,1.905    c0.695,0.5,1.411,0.98,2.135,1.456c0.889,0.584,1.794,1.151,2.725,1.698c0.758,0.445,1.525,0.876,2.31,1.296    c0.97,0.519,1.96,1.012,2.969,1.491c0.808,0.383,1.618,0.761,2.45,1.117c1.053,0.452,2.131,0.867,3.221,1.274    c0.844,0.315,1.682,0.633,2.547,0.921c1.144,0.381,2.316,0.715,3.493,1.046c0.862,0.243,1.714,0.498,2.594,0.713    c1.254,0.307,2.539,0.553,3.826,0.802c0.846,0.164,1.678,0.353,2.537,0.49c1.454,0.233,2.939,0.393,4.427,0.551    c0.728,0.077,1.439,0.191,2.174,0.25c2.241,0.179,4.512,0.28,6.815,0.28c2.303,0,4.574-0.102,6.815-0.28    c0.735-0.059,1.447-0.172,2.175-0.25c1.487-0.158,2.973-0.316,4.425-0.55c0.861-0.139,1.694-0.328,2.542-0.492    c1.285-0.249,2.569-0.495,3.822-0.801c0.879-0.215,1.731-0.471,2.594-0.713c1.177-0.331,2.35-0.665,3.493-1.046    c0.865-0.288,1.703-0.606,2.547-0.921c1.089-0.407,2.168-0.822,3.221-1.274c0.833-0.357,1.642-0.735,2.451-1.118    c1.007-0.478,1.997-0.97,2.965-1.488c0.787-0.421,1.557-0.854,2.317-1.3c0.929-0.546,1.832-1.112,2.719-1.695    c0.725-0.476,1.441-0.957,2.137-1.457c0.856-0.616,1.675-1.255,2.485-1.905c0.421-0.338,0.885-0.644,1.292-0.991V400z     M176.026,368c0,17.344-21.984,32-48,32s-48-14.656-48-32v-0.281c0.408,0.347,0.872,0.653,1.292,0.991    c0.81,0.65,1.628,1.29,2.485,1.905c0.695,0.5,1.411,0.98,2.135,1.456c0.889,0.584,1.794,1.151,2.725,1.698    c0.758,0.445,1.525,0.876,2.31,1.296c0.97,0.519,1.96,1.012,2.969,1.491c0.808,0.383,1.618,0.761,2.45,1.117    c1.053,0.452,2.131,0.867,3.221,1.274c0.844,0.315,1.682,0.633,2.547,0.921c1.144,0.381,2.316,0.715,3.493,1.046    c0.862,0.243,1.714,0.498,2.594,0.713c1.254,0.307,2.539,0.553,3.826,0.802c0.846,0.164,1.678,0.353,2.537,0.49    c1.454,0.233,2.939,0.393,4.427,0.551c0.728,0.077,1.439,0.191,2.174,0.25c2.241,0.179,4.512,0.28,6.815,0.28    c2.303,0,4.574-0.102,6.815-0.28c0.735-0.059,1.447-0.172,2.175-0.25c1.487-0.158,2.973-0.316,4.425-0.55    c0.861-0.139,1.694-0.328,2.542-0.492c1.285-0.249,2.569-0.495,3.822-0.801c0.879-0.215,1.731-0.471,2.594-0.713    c1.177-0.331,2.35-0.665,3.493-1.046c0.865-0.288,1.703-0.606,2.547-0.921c1.089-0.407,2.168-0.822,3.221-1.274    c0.833-0.357,1.642-0.735,2.451-1.118c1.007-0.478,1.997-0.97,2.965-1.488c0.787-0.421,1.557-0.854,2.317-1.3    c0.929-0.546,1.832-1.112,2.719-1.695c0.725-0.476,1.441-0.957,2.137-1.457c0.856-0.616,1.675-1.255,2.485-1.905    c0.421-0.338,0.885-0.644,1.292-0.991V368z M128.026,368c-26.016,0-48-14.656-48-32s21.984-32,48-32c26.016,0,48,14.656,48,32    S154.042,368,128.026,368z M288.026,432c0,17.344-21.984,32-48,32s-48-14.656-48-32v-0.281c0.408,0.347,0.872,0.653,1.292,0.991    c0.81,0.65,1.628,1.29,2.485,1.905c0.695,0.5,1.411,0.98,2.135,1.456c0.889,0.584,1.794,1.151,2.725,1.698    c0.758,0.445,1.525,0.876,2.31,1.296c0.97,0.519,1.96,1.012,2.969,1.491c0.808,0.383,1.618,0.761,2.45,1.117    c1.053,0.452,2.131,0.867,3.221,1.274c0.844,0.315,1.682,0.633,2.547,0.921c1.144,0.381,2.316,0.715,3.493,1.046    c0.862,0.243,1.714,0.498,2.594,0.713c1.254,0.307,2.54,0.553,3.826,0.802c0.846,0.164,1.678,0.353,2.537,0.49    c1.454,0.233,2.939,0.393,4.427,0.551c0.728,0.077,1.439,0.191,2.174,0.25c2.241,0.179,4.512,0.28,6.815,0.28    s4.574-0.102,6.815-0.28c0.735-0.059,1.447-0.172,2.175-0.25c1.487-0.158,2.973-0.316,4.425-0.55    c0.861-0.139,1.694-0.328,2.542-0.492c1.285-0.249,2.569-0.495,3.822-0.801c0.879-0.215,1.731-0.471,2.594-0.713    c1.177-0.331,2.35-0.665,3.493-1.046c0.865-0.288,1.703-0.606,2.547-0.921c1.089-0.407,2.168-0.822,3.221-1.274    c0.833-0.357,1.642-0.735,2.451-1.118c1.007-0.478,1.997-0.97,2.965-1.488c0.787-0.421,1.557-0.854,2.317-1.3    c0.929-0.546,1.832-1.112,2.719-1.695c0.725-0.476,1.441-0.957,2.137-1.457c0.856-0.616,1.675-1.255,2.485-1.905    c0.421-0.338,0.885-0.644,1.292-0.991V432z M288.026,400c0,17.344-21.984,32-48,32s-48-14.656-48-32v-0.281    c0.408,0.347,0.872,0.653,1.292,0.991c0.81,0.65,1.628,1.29,2.485,1.905c0.695,0.5,1.411,0.98,2.135,1.456    c0.889,0.584,1.794,1.151,2.725,1.698c0.758,0.445,1.525,0.876,2.31,1.296c0.97,0.519,1.96,1.012,2.969,1.491    c0.808,0.383,1.618,0.761,2.45,1.117c1.053,0.452,2.131,0.867,3.221,1.274c0.844,0.315,1.682,0.633,2.547,0.921    c1.144,0.381,2.316,0.715,3.493,1.046c0.862,0.243,1.714,0.498,2.594,0.713c1.254,0.307,2.54,0.553,3.826,0.802    c0.846,0.164,1.678,0.353,2.537,0.49c1.454,0.233,2.939,0.393,4.427,0.551c0.728,0.077,1.439,0.191,2.174,0.25    c2.241,0.179,4.512,0.28,6.815,0.28s4.574-0.102,6.815-0.28c0.735-0.059,1.447-0.172,2.175-0.25    c1.487-0.158,2.973-0.316,4.425-0.55c0.861-0.139,1.694-0.328,2.542-0.492c1.285-0.249,2.569-0.495,3.822-0.801    c0.879-0.215,1.731-0.471,2.594-0.713c1.177-0.331,2.35-0.665,3.493-1.046c0.865-0.288,1.703-0.606,2.547-0.921    c1.089-0.407,2.168-0.822,3.221-1.274c0.833-0.357,1.642-0.735,2.451-1.118c1.007-0.478,1.997-0.97,2.965-1.488    c0.787-0.421,1.557-0.854,2.317-1.3c0.929-0.546,1.832-1.112,2.719-1.695c0.725-0.476,1.441-0.957,2.137-1.457    c0.856-0.616,1.675-1.255,2.485-1.905c0.421-0.338,0.885-0.644,1.292-0.991V400z M288.026,368c0,17.344-21.984,32-48,32    s-48-14.656-48-32v-0.281c0.408,0.347,0.872,0.653,1.292,0.991c0.81,0.65,1.628,1.29,2.485,1.905    c0.695,0.5,1.411,0.98,2.135,1.456c0.889,0.584,1.794,1.151,2.725,1.698c0.758,0.445,1.525,0.876,2.31,1.296    c0.97,0.519,1.96,1.012,2.969,1.491c0.808,0.383,1.618,0.761,2.45,1.117c1.053,0.452,2.131,0.867,3.221,1.274    c0.844,0.315,1.682,0.633,2.547,0.921c1.144,0.381,2.316,0.715,3.493,1.046c0.862,0.243,1.714,0.498,2.594,0.713    c1.254,0.307,2.54,0.553,3.826,0.802c0.846,0.164,1.678,0.353,2.537,0.49c1.454,0.233,2.939,0.393,4.427,0.551    c0.728,0.077,1.439,0.191,2.174,0.25c2.241,0.179,4.512,0.28,6.815,0.28s4.574-0.102,6.815-0.28    c0.735-0.059,1.447-0.172,2.175-0.25c1.487-0.158,2.973-0.316,4.425-0.55c0.861-0.139,1.694-0.328,2.542-0.492    c1.285-0.249,2.569-0.495,3.822-0.801c0.879-0.215,1.731-0.471,2.594-0.713c1.177-0.331,2.35-0.665,3.493-1.046    c0.865-0.288,1.703-0.606,2.547-0.921c1.089-0.407,2.168-0.822,3.221-1.274c0.833-0.357,1.642-0.735,2.451-1.118    c1.007-0.478,1.997-0.97,2.965-1.488c0.787-0.421,1.557-0.854,2.317-1.3c0.929-0.546,1.832-1.112,2.719-1.695    c0.725-0.476,1.441-0.957,2.137-1.457c0.856-0.616,1.675-1.255,2.485-1.905c0.421-0.338,0.885-0.644,1.292-0.991V368z     M288.026,336c0,17.344-21.984,32-48,32s-48-14.656-48-32v-0.281c0.408,0.347,0.872,0.653,1.292,0.991    c0.81,0.65,1.628,1.29,2.485,1.905c0.695,0.5,1.411,0.98,2.135,1.456c0.889,0.584,1.794,1.151,2.725,1.698    c0.758,0.445,1.525,0.876,2.31,1.296c0.97,0.519,1.96,1.012,2.969,1.491c0.808,0.383,1.618,0.761,2.45,1.117    c1.053,0.452,2.131,0.867,3.221,1.274c0.844,0.315,1.682,0.633,2.547,0.921c1.144,0.381,2.316,0.715,3.493,1.046    c0.862,0.243,1.714,0.498,2.594,0.713c1.254,0.307,2.54,0.553,3.826,0.802c0.846,0.164,1.678,0.353,2.537,0.49    c1.454,0.233,2.939,0.393,4.427,0.551c0.728,0.077,1.439,0.191,2.174,0.25c2.241,0.179,4.512,0.28,6.815,0.28    s4.574-0.102,6.815-0.28c0.735-0.059,1.447-0.172,2.175-0.25c1.487-0.158,2.973-0.316,4.425-0.55    c0.861-0.139,1.694-0.328,2.542-0.492c1.285-0.249,2.569-0.495,3.822-0.801c0.879-0.215,1.731-0.471,2.594-0.713    c1.177-0.331,2.35-0.665,3.493-1.046c0.865-0.288,1.703-0.606,2.547-0.921c1.089-0.407,2.168-0.822,3.221-1.274    c0.833-0.357,1.642-0.735,2.451-1.118c1.007-0.478,1.997-0.97,2.965-1.488c0.787-0.421,1.557-0.854,2.317-1.3    c0.929-0.546,1.832-1.112,2.719-1.695c0.725-0.476,1.441-0.957,2.137-1.457c0.856-0.616,1.675-1.255,2.485-1.905    c0.421-0.338,0.885-0.644,1.292-0.991V336z M288.026,304c0,17.344-21.984,32-48,32s-48-14.656-48-32v-0.281    c0.408,0.347,0.872,0.653,1.292,0.991c0.81,0.65,1.628,1.29,2.485,1.905c0.695,0.5,1.411,0.98,2.135,1.456    c0.889,0.584,1.794,1.151,2.725,1.698c0.758,0.445,1.525,0.876,2.31,1.296c0.97,0.519,1.96,1.012,2.969,1.491    c0.808,0.383,1.618,0.761,2.45,1.117c1.053,0.452,2.131,0.867,3.221,1.274c0.844,0.315,1.682,0.633,2.547,0.921    c1.144,0.381,2.316,0.715,3.493,1.046c0.862,0.243,1.714,0.498,2.594,0.713c1.254,0.307,2.54,0.553,3.826,0.802    c0.846,0.164,1.678,0.353,2.537,0.49c1.454,0.233,2.939,0.393,4.427,0.551c0.728,0.077,1.439,0.191,2.174,0.25    c2.241,0.179,4.512,0.28,6.815,0.28s4.574-0.102,6.815-0.28c0.735-0.059,1.447-0.172,2.175-0.25    c1.487-0.158,2.973-0.316,4.425-0.55c0.861-0.139,1.694-0.328,2.542-0.492c1.285-0.249,2.569-0.495,3.822-0.801    c0.879-0.215,1.731-0.471,2.594-0.713c1.177-0.331,2.35-0.665,3.493-1.046c0.865-0.288,1.703-0.606,2.547-0.921    c1.089-0.407,2.168-0.822,3.221-1.274c0.833-0.357,1.642-0.735,2.451-1.118c1.007-0.478,1.997-0.97,2.965-1.488    c0.787-0.421,1.557-0.854,2.317-1.3c0.929-0.546,1.832-1.112,2.719-1.695c0.725-0.476,1.441-0.957,2.137-1.457    c0.856-0.616,1.675-1.255,2.485-1.905c0.421-0.338,0.885-0.644,1.292-0.991V304z M288.026,272c0,17.344-21.984,32-48,32    s-48-14.656-48-32v-0.281c0.408,0.347,0.872,0.653,1.292,0.991c0.81,0.65,1.628,1.29,2.485,1.905    c0.695,0.5,1.411,0.98,2.135,1.456c0.889,0.584,1.794,1.151,2.725,1.698c0.758,0.445,1.525,0.876,2.31,1.296    c0.97,0.519,1.96,1.012,2.969,1.491c0.808,0.383,1.618,0.761,2.45,1.117c1.053,0.452,2.131,0.867,3.221,1.274    c0.844,0.315,1.682,0.633,2.547,0.921c1.144,0.381,2.316,0.715,3.493,1.046c0.862,0.243,1.714,0.498,2.594,0.713    c1.254,0.307,2.54,0.553,3.826,0.802c0.846,0.164,1.678,0.353,2.537,0.49c1.454,0.233,2.939,0.393,4.427,0.551    c0.728,0.077,1.439,0.191,2.174,0.25c2.241,0.179,4.512,0.28,6.815,0.28s4.574-0.102,6.815-0.28    c0.735-0.059,1.447-0.172,2.175-0.25c1.487-0.158,2.973-0.316,4.425-0.55c0.861-0.139,1.694-0.328,2.542-0.492    c1.285-0.249,2.569-0.495,3.822-0.801c0.879-0.215,1.731-0.471,2.594-0.713c1.177-0.331,2.35-0.665,3.493-1.046    c0.865-0.288,1.703-0.606,2.547-0.921c1.089-0.407,2.168-0.822,3.221-1.274c0.833-0.357,1.642-0.735,2.451-1.118    c1.007-0.478,1.997-0.97,2.965-1.488c0.787-0.421,1.557-0.854,2.317-1.3c0.929-0.546,1.832-1.112,2.719-1.695    c0.725-0.476,1.441-0.957,2.137-1.457c0.856-0.616,1.675-1.255,2.485-1.905c0.421-0.338,0.885-0.644,1.292-0.991V272z     M240.026,272c-26.016,0-48-14.656-48-32s21.984-32,48-32s48,14.656,48,32S266.042,272,240.026,272z M400.026,432    c0,17.344-21.984,32-48,32s-48-14.656-48-32v-0.281c0.408,0.347,0.872,0.653,1.292,0.991c0.81,0.65,1.628,1.29,2.485,1.905    c0.695,0.5,1.411,0.98,2.135,1.456c0.889,0.584,1.794,1.151,2.725,1.698c0.758,0.445,1.525,0.876,2.31,1.296    c0.97,0.519,1.96,1.012,2.969,1.491c0.808,0.383,1.618,0.761,2.45,1.117c1.053,0.452,2.131,0.867,3.221,1.274    c0.844,0.315,1.682,0.633,2.547,0.921c1.144,0.381,2.316,0.715,3.493,1.046c0.862,0.243,1.714,0.498,2.594,0.713    c1.254,0.307,2.539,0.553,3.826,0.802c0.846,0.164,1.678,0.353,2.537,0.49c1.454,0.233,2.939,0.393,4.427,0.551    c0.728,0.077,1.439,0.191,2.174,0.25c2.241,0.179,4.512,0.28,6.815,0.28c2.303,0,4.574-0.102,6.815-0.28    c0.735-0.059,1.447-0.172,2.175-0.25c1.487-0.158,2.973-0.316,4.425-0.55c0.861-0.139,1.694-0.328,2.542-0.492    c1.285-0.249,2.569-0.495,3.822-0.801c0.879-0.215,1.731-0.471,2.594-0.713c1.177-0.331,2.35-0.665,3.493-1.046    c0.865-0.288,1.703-0.606,2.547-0.921c1.089-0.407,2.168-0.822,3.221-1.274c0.833-0.357,1.642-0.735,2.451-1.118    c1.007-0.478,1.997-0.97,2.965-1.488c0.787-0.421,1.557-0.854,2.317-1.3c0.929-0.546,1.832-1.112,2.719-1.695    c0.725-0.476,1.441-0.957,2.137-1.457c0.857-0.616,1.675-1.255,2.485-1.905c0.421-0.338,0.885-0.644,1.292-0.991V432z     M400.026,400c0,17.344-21.984,32-48,32s-48-14.656-48-32v-0.281c0.408,0.347,0.872,0.653,1.292,0.991    c0.81,0.65,1.628,1.29,2.485,1.905c0.695,0.5,1.411,0.98,2.135,1.456c0.889,0.584,1.794,1.151,2.725,1.698    c0.758,0.445,1.525,0.876,2.31,1.296c0.97,0.519,1.96,1.012,2.969,1.491c0.808,0.383,1.618,0.761,2.45,1.117    c1.053,0.452,2.131,0.867,3.221,1.274c0.844,0.315,1.682,0.633,2.547,0.921c1.144,0.381,2.316,0.715,3.493,1.046    c0.862,0.243,1.714,0.498,2.594,0.713c1.254,0.307,2.539,0.553,3.826,0.802c0.846,0.164,1.678,0.353,2.537,0.49    c1.454,0.233,2.939,0.393,4.427,0.551c0.728,0.077,1.439,0.191,2.174,0.25c2.241,0.179,4.512,0.28,6.815,0.28    c2.303,0,4.574-0.102,6.815-0.28c0.735-0.059,1.447-0.172,2.175-0.25c1.487-0.158,2.973-0.316,4.425-0.55    c0.861-0.139,1.694-0.328,2.542-0.492c1.285-0.249,2.569-0.495,3.822-0.801c0.879-0.215,1.731-0.471,2.594-0.713    c1.177-0.331,2.35-0.665,3.493-1.046c0.865-0.288,1.703-0.606,2.547-0.921c1.089-0.407,2.168-0.822,3.221-1.274    c0.833-0.357,1.642-0.735,2.451-1.118c1.007-0.478,1.997-0.97,2.965-1.488c0.787-0.421,1.557-0.854,2.317-1.3    c0.929-0.546,1.832-1.112,2.719-1.695c0.725-0.476,1.441-0.957,2.137-1.457c0.857-0.616,1.675-1.255,2.485-1.905    c0.421-0.338,0.885-0.644,1.292-0.991V400z M400.026,368c0,17.344-21.984,32-48,32s-48-14.656-48-32v-0.281    c0.408,0.347,0.872,0.653,1.292,0.991c0.81,0.65,1.628,1.29,2.485,1.905c0.695,0.5,1.411,0.98,2.135,1.456    c0.889,0.584,1.794,1.151,2.725,1.698c0.758,0.445,1.525,0.876,2.31,1.296c0.97,0.519,1.96,1.012,2.969,1.491    c0.808,0.383,1.618,0.761,2.45,1.117c1.053,0.452,2.131,0.867,3.221,1.274c0.844,0.315,1.682,0.633,2.547,0.921    c1.144,0.381,2.316,0.715,3.493,1.046c0.862,0.243,1.714,0.498,2.594,0.713c1.254,0.307,2.539,0.553,3.826,0.802    c0.846,0.164,1.678,0.353,2.537,0.49c1.454,0.233,2.939,0.393,4.427,0.551c0.728,0.077,1.439,0.191,2.174,0.25    c2.241,0.179,4.512,0.28,6.815,0.28c2.303,0,4.574-0.102,6.815-0.28c0.735-0.059,1.447-0.172,2.175-0.25    c1.487-0.158,2.973-0.316,4.425-0.55c0.861-0.139,1.694-0.328,2.542-0.492c1.285-0.249,2.569-0.495,3.822-0.801    c0.879-0.215,1.731-0.471,2.594-0.713c1.177-0.331,2.35-0.665,3.493-1.046c0.865-0.288,1.703-0.606,2.547-0.921    c1.089-0.407,2.168-0.822,3.221-1.274c0.833-0.357,1.642-0.735,2.451-1.118c1.007-0.478,1.997-0.97,2.965-1.488    c0.787-0.421,1.557-0.854,2.317-1.3c0.929-0.546,1.832-1.112,2.719-1.695c0.725-0.476,1.441-0.957,2.137-1.457    c0.857-0.616,1.675-1.255,2.485-1.905c0.421-0.338,0.885-0.644,1.292-0.991V368z M400.026,336c0,17.344-21.984,32-48,32    s-48-14.656-48-32v-0.281c0.408,0.347,0.872,0.653,1.292,0.991c0.81,0.65,1.628,1.29,2.485,1.905    c0.695,0.5,1.411,0.98,2.135,1.456c0.889,0.584,1.794,1.151,2.725,1.698c0.758,0.445,1.525,0.876,2.31,1.296    c0.97,0.519,1.96,1.012,2.969,1.491c0.808,0.383,1.618,0.761,2.45,1.117c1.053,0.452,2.131,0.867,3.221,1.274    c0.844,0.315,1.682,0.633,2.547,0.921c1.144,0.381,2.316,0.715,3.493,1.046c0.862,0.243,1.714,0.498,2.594,0.713    c1.254,0.307,2.539,0.553,3.826,0.802c0.846,0.164,1.678,0.353,2.537,0.49c1.454,0.233,2.939,0.393,4.427,0.551    c0.728,0.077,1.439,0.191,2.174,0.25c2.241,0.179,4.512,0.28,6.815,0.28c2.303,0,4.574-0.102,6.815-0.28    c0.735-0.059,1.447-0.172,2.175-0.25c1.487-0.158,2.973-0.316,4.425-0.55c0.861-0.139,1.694-0.328,2.542-0.492    c1.285-0.249,2.569-0.495,3.822-0.801c0.879-0.215,1.731-0.471,2.594-0.713c1.177-0.331,2.35-0.665,3.493-1.046    c0.865-0.288,1.703-0.606,2.547-0.921c1.089-0.407,2.168-0.822,3.221-1.274c0.833-0.357,1.642-0.735,2.451-1.118    c1.007-0.478,1.997-0.97,2.965-1.488c0.787-0.421,1.557-0.854,2.317-1.3c0.929-0.546,1.832-1.112,2.719-1.695    c0.725-0.476,1.441-0.957,2.137-1.457c0.857-0.616,1.675-1.255,2.485-1.905c0.421-0.338,0.885-0.644,1.292-0.991V336z     M352.026,336c-26.016,0-48-14.656-48-32s21.984-32,48-32c26.016,0,48,14.656,48,32S378.042,336,352.026,336z"/></g></defs><g fi:class="KUsePattern"><pattern id="pattern_L1_4" width="350" height="350" patternUnits="userSpaceOnUse"><use xlink:href="#L1_4" x="-350" y="-350"/><use xlink:href="#L1_4" x="0" y="-350"/><use xlink:href="#L1_4" x="350" y="-350"/><use xlink:href="#L1_4" x="-350" y="0"/><use xlink:href="#L1_4" x="0" y="0"/><use xlink:href="#L1_4" x="350" y="0"/><use xlink:href="#L1_4" x="-350" y="350"/><use xlink:href="#L1_4" x="0" y="350"/><use xlink:href="#L1_4" x="350" y="350"/></pattern><rect x="0" y="0" width="100%" height="100%" fill="url(#pattern_L1_4)"/></g><g fi:class="KUsePattern"><pattern id="pattern_L1_5" width="350" height="350" patternUnits="userSpaceOnUse"><use xlink:href="#L1_5" x="-350" y="-350"/><use xlink:href="#L1_5" x="0" y="-350"/><use xlink:href="#L1_5" x="350" y="-350"/><use xlink:href="#L1_5" x="-350" y="0"/><use xlink:href="#L1_5" x="0" y="0"/><use xlink:href="#L1_5" x="350" y="0"/><use xlink:href="#L1_5" x="-350" y="350"/><use xlink:href="#L1_5" x="0" y="350"/><use xlink:href="#L1_5" x="350" y="350"/></pattern><rect x="0" y="0" width="100%" height="100%" fill="url(#pattern_L1_5)"/></g><g fi:class="KUsePattern"><pattern id="pattern_L1_6" width="350" height="350" patternUnits="userSpaceOnUse"><use xlink:href="#L1_6" x="-350" y="-350"/><use xlink:href="#L1_6" x="0" y="-350"/><use xlink:href="#L1_6" x="350" y="-350"/><use xlink:href="#L1_6" x="-350" y="0"/><use xlink:href="#L1_6" x="0" y="0"/><use xlink:href="#L1_6" x="350" y="0"/><use xlink:href="#L1_6" x="-350" y="350"/><use xlink:href="#L1_6" x="0" y="350"/><use xlink:href="#L1_6" x="350" y="350"/></pattern><rect x="0" y="0" width="100%" height="100%" fill="url(#pattern_L1_6)"/></g><g fi:class="KUsePattern"><pattern id="pattern_L1_7" width="350" height="350" patternUnits="userSpaceOnUse"><use xlink:href="#L1_7" x="-350" y="-350"/><use xlink:href="#L1_7" x="0" y="-350"/><use xlink:href="#L1_7" x="350" y="-350"/><use xlink:href="#L1_7" x="-350" y="0"/><use xlink:href="#L1_7" x="0" y="0"/><use xlink:href="#L1_7" x="350" y="0"/><use xlink:href="#L1_7" x="-350" y="350"/><use xlink:href="#L1_7" x="0" y="350"/><use xlink:href="#L1_7" x="350" y="350"/></pattern><rect x="0" y="0" width="100%" height="100%" fill="url(#pattern_L1_7)"/></g><g fi:class="KUsePattern"><pattern id="pattern_L1_46" width="350" height="350" patternUnits="userSpaceOnUse"><use xlink:href="#L1_46" x="-350" y="-350"/><use xlink:href="#L1_46" x="0" y="-350"/><use xlink:href="#L1_46" x="350" y="-350"/><use xlink:href="#L1_46" x="-350" y="0"/><use xlink:href="#L1_46" x="0" y="0"/><use xlink:href="#L1_46" x="350" y="0"/><use xlink:href="#L1_46" x="-350" y="350"/><use xlink:href="#L1_46" x="0" y="350"/><use xlink:href="#L1_46" x="350" y="350"/></pattern><rect x="0" y="0" width="100%" height="100%" fill="url(#pattern_L1_46)"/></g><g fi:class="KUsePattern"><pattern id="pattern_L1_48" width="350" height="350" patternUnits="userSpaceOnUse"><use xlink:href="#L1_48" x="-350" y="-350"/><use xlink:href="#L1_48" x="0" y="-350"/><use xlink:href="#L1_48" x="350" y="-350"/><use xlink:href="#L1_48" x="-350" y="0"/><use xlink:href="#L1_48" x="0" y="0"/><use xlink:href="#L1_48" x="350" y="0"/><use xlink:href="#L1_48" x="-350" y="350"/><use xlink:href="#L1_48" x="0" y="350"/><use xlink:href="#L1_48" x="350" y="350"/></pattern><rect x="0" y="0" width="100%" height="100%" fill="url(#pattern_L1_48)"/></g><g fi:class="KUsePattern"><pattern id="pattern_L1_49" width="350" height="350" patternUnits="userSpaceOnUse"><use xlink:href="#L1_49" x="-350" y="-350"/><use xlink:href="#L1_49" x="0" y="-350"/><use xlink:href="#L1_49" x="350" y="-350"/><use xlink:href="#L1_49" x="-350" y="0"/><use xlink:href="#L1_49" x="0" y="0"/><use xlink:href="#L1_49" x="350" y="0"/><use xlink:href="#L1_49" x="-350" y="350"/><use xlink:href="#L1_49" x="0" y="350"/><use xlink:href="#L1_49" x="350" y="350"/></pattern><rect x="0" y="0" width="100%" height="100%" fill="url(#pattern_L1_49)"/></g><g fi:class="KUsePattern"><pattern id="pattern_L1_50" width="350" height="350" patternUnits="userSpaceOnUse"><use xlink:href="#L1_50" x="-350" y="-350"/><use xlink:href="#L1_50" x="0" y="-350"/><use xlink:href="#L1_50" x="350" y="-350"/><use xlink:href="#L1_50" x="-350" y="0"/><use xlink:href="#L1_50" x="0" y="0"/><use xlink:href="#L1_50" x="350" y="0"/><use xlink:href="#L1_50" x="-350" y="350"/><use xlink:href="#L1_50" x="0" y="350"/><use xlink:href="#L1_50" x="350" y="350"/></pattern><rect x="0" y="0" width="100%" height="100%" fill="url(#pattern_L1_50)"/></g><g fi:class="KUsePattern"><pattern id="pattern_L1_51" width="350" height="350" patternUnits="userSpaceOnUse"><use xlink:href="#L1_51" x="-350" y="-350"/><use xlink:href="#L1_51" x="0" y="-350"/><use xlink:href="#L1_51" x="350" y="-350"/><use xlink:href="#L1_51" x="-350" y="0"/><use xlink:href="#L1_51" x="0" y="0"/><use xlink:href="#L1_51" x="350" y="0"/><use xlink:href="#L1_51" x="-350" y="350"/><use xlink:href="#L1_51" x="0" y="350"/><use xlink:href="#L1_51" x="350" y="350"/></pattern><rect x="0" y="0" width="100%" height="100%" fill="url(#pattern_L1_51)"/></g></svg>